# xmcd
#
# Track frame offsets:
#	150
#	21584
#	35722
#	51621
#	67540
#	80405
#	97623
#	109974
#	124786
#	138697
#	153121
#	167870
#	184951
#	198917
#	215242
#	229817
#	243309
#
# Disc length: 3425 seconds
#
# Revision: 0
# Processed by: cddbd v1.5.2PL0 Copyright (c) Steve Scherf et al.
# Submitted via: audiograbber 1.83.01
#
DISCID=f30d5f11
DTITLE=Various Artist - Promo Only Country Dec 2017
DYEAR=2017
DGENRE=Country
TTITLE0=Tony Young - The Grass Isn't Awlays Greener
TTITLE1=James Barker Band - Chills
TTITLE2=Chris Lane and Tori Kelly - Take Back Home Girl
TTITLE3=Morgan Evans - Kiss Somebody
TTITLE4=Drew Baldridge - Guns and Roses
TTITLE5=David Lee Murphy and Kenny Chesney - Everything's Gonna Be Alright
TTITLE6=Bebe Rexha and Florida Georgia Line - Meant To Be
TTITLE7=Jon Pardi - She Ain't In It
TTITLE8=Dustin Lynch - I'd Be Jealous Too
TTITLE9=Kelsea Ballerini - Miss Me More
TTITLE10=Morgan Wallen and Florida Georgia Line - Up Down
TTITLE11=Stephanie Quayle - Selfish
TTITLE12=Craig Wayne Boyd - Stuck In My Head
TTITLE13=Tyminski - Bloodline
TTITLE14=Keith Urban - Female
TTITLE15=Jerrod Niemann - I Got This
TTITLE16=Denny Strickland - We Don't Sleep
EXTD=
EXTT0=
EXTT1=
EXTT2=
EXTT3=
EXTT4=
EXTT5=
EXTT6=
EXTT7=
EXTT8=
EXTT9=
EXTT10=
EXTT11=
EXTT12=
EXTT13=
EXTT14=
EXTT15=
EXTT16=
PLAYORDER=
